PathFileType	4	(X/Y/Z)	Kaydara	
DataRate	CameraRate	NumFrames	NumMarkers	Units	OrigDataRate	OrigDataStartFrame	OrigNumFrames	
120.00	120.00	4	72	mm	120.00	168	268	
Frame#	Time	Hips			RightUpLeg			RightLeg			RightFoot			RightFoot_End			LeftUpLeg			LeftLeg			LeftFoot			LeftFoot_End			Spine			Spine1			Spine2			Spine3			Neck			Head			Head_End			RightShoulder			RightArm			RightForeArm			RightHand			RightHandThumb1			RightHandThumb2			RightHandThumb3			RightHandThumb3_End			RightInHandIndex			RightHandIndex1			RightHandIndex2			RightHandIndex3			RightHandIndex3_End			RightInHandMiddle			RightHandMiddle1			RightHandMiddle2			RightHandMiddle3			RightHandMiddle3_End			RightInHandRing			RightHandRing1			RightHandRing2			RightHandRing3			RightHandRing3_End			RightInHandPinky			RightHandPinky1			RightHandPinky2			RightHandPinky3			RightHandPinky3_End			LeftShoulder			LeftArm			LeftForeArm			LeftHand			LeftHandThumb1			LeftHandThumb2			LeftHandThumb3			LeftHandThumb3_End			LeftInHandIndex			LeftHandIndex1			LeftHandIndex2			LeftHandIndex3			LeftHandIndex3_End			LeftInHandMiddle			LeftHandMiddle1			LeftHandMiddle2			LeftHandMiddle3			LeftHandMiddle3_End			LeftInHandRing			LeftHandRing1			LeftHandRing2			LeftHandRing3			LeftHandRing3_End			LeftInHandPinky			LeftHandPinky1			LeftHandPinky2			LeftHandPinky3			LeftHandPinky3_End			
		X1	Y1	Z1	X2	Y2	Z2	X3	Y3	Z3	X4	Y4	Z4	X5	Y5	Z5	X6	Y6	Z6	X7	Y7	Z7	X8	Y8	Z8	X9	Y9	Z9	X10	Y10	Z10	X11	Y11	Z11	X12	Y12	Z12	X13	Y13	Z13	X14	Y14	Z14	X15	Y15	Z15	X16	Y16	Z16	X17	Y17	Z17	X18	Y18	Z18	X19	Y19	Z19	X20	Y20	Z20	X21	Y21	Z21	X22	Y22	Z22	X23	Y23	Z23	X24	Y24	Z24	X25	Y25	Z25	X26	Y26	Z26	X27	Y27	Z27	X28	Y28	Z28	X29	Y29	Z29	X30	Y30	Z30	X31	Y31	Z31	X32	Y32	Z32	X33	Y33	Z33	X34	Y34	Z34	X35	Y35	Z35	X36	Y36	Z36	X37	Y37	Z37	X38	Y38	Z38	X39	Y39	Z39	X40	Y40	Z40	X41	Y41	Z41	X42	Y42	Z42	X43	Y43	Z43	X44	Y44	Z44	X45	Y45	Z45	X46	Y46	Z46	X47	Y47	Z47	X48	Y48	Z48	X49	Y49	Z49	X50	Y50	Z50	X51	Y51	Z51	X52	Y52	Z52	X53	Y53	Z53	X54	Y54	Z54	X55	Y55	Z55	X56	Y56	Z56	X57	Y57	Z57	X58	Y58	Z58	X59	Y59	Z59	X60	Y60	Z60	X61	Y61	Z61	X62	Y62	Z62	X63	Y63	Z63	X64	Y64	Z64	X65	Y65	Z65	X66	Y66	Z66	X67	Y67	Z67	X68	Y68	Z68	X69	Y69	Z69	X70	Y70	Z70	X71	Y71	Z71	X72	Y72	Z72	

168	1.392	4446.805	859.65103	-201.189	4491.662840524789	843.8476160565124	-238.31040298850692	4409.06237595053	439.03602504237534	-263.14565288317226	4492.942982661187	68.99886019401336	-393.33981323121134	4473.829802139128	-27.211197041514826	-249.62068462538838	4409.334239027677	846.5352832791679	-151.25714535863932	4286.253695233034	454.8410148876664	-72.52333706579697	4211.980752528622	79.4884809606343	88.55178443184019	4266.098326933928	26.543875889614785	260.57949791886557	4411.740912058593	986.9443366605552	-254.948146716614	4365.206443289018	1060.8681166195656	-296.4871515796518	4311.481683706361	1133.916680127553	-339.86791947483516	4252.4103619389625	1196.9931574728305	-381.8902644654018	4187.844547674748	1263.6995846693706	-422.97476911466777	4145.128624726058	1336.736639082309	-384.4642226193167	4121.924590371861	1428.4601326985328	-258.6295970232195	4217.420907486494	1243.180031410115	-422.9657061044544	4255.368944663522	1235.009593472911	-467.7622297350557	4330.448611680306	1077.2441278368206	-425.6350915824083	4371.754085763279	1046.5930240195755	-485.9067220997792	4378.69473699035	1062.3187191736847	-493.19964224290266	4377.349552275432	1072.372940276474	-508.00797747943955	4376.603679657388	1076.9183332362636	-517.786564973561	4376.145202265437	1078.606263777005	-525.4817754296605	4381.060696656099	1054.942517360814	-491.1257659562636	4391.466745065709	1058.6509374617128	-500.7121507348335	4393.12749543968	1061.304165976859	-511.81128618028947	4390.133662073744	1064.7066629318083	-520.8332035431854	4384.939791180654	1068.7053510772255	-529.7317171931895	4380.9524920997355	1048.1359581373854	-489.55034379410597	4391.045300249621	1048.0713430084563	-498.0472008552527	4392.802509803509	1050.056493034895	-509.92513099935434	4389.164153750174	1053.7247808662453	-520.6977281136318	4383.468276449329	1057.887771222859	-530.3798629671027	4380.670484287876	1043.2164306216002	-488.14613399443476	4389.646360785005	1038.8410456713884	-494.40588357564246	4391.105160039925	1039.6414255714421	-504.50725914702866	4387.557018496433	1042.6859633850545	-514.7647408846493	4382.183131782969	1046.3662200539065	-523.8051012973215	4379.5714305981965	1037.5654553488123	-486.6166346095218	4387.331129265538	1030.0158955429897	-491.2620260892273	4388.34614332908	1029.2252868590308	-498.93155473310827	4385.684032467963	1030.7535077926484	-506.21058342881815	4380.881008411967	1033.6150889057203	-514.1021520521438	4201.052989321753	1242.211039643281	-395.0073731965438	4178.00960984704	1208.9162220780734	-346.2272096380032	4241.749474691356	1100.7590541859056	-427.8561785687638	4329.869082891349	1059.6864144202857	-396.66223840531484	4328.237514757951	1075.7768182705136	-400.94960012074677	4338.86801178558	1076.4616573308258	-416.1951436408715	4346.883851965511	1074.671815144116	-428.06506804666475	4354.090513205829	1071.240540332233	-439.032346631214	4329.217669452187	1070.186398445528	-405.23936452302695	4335.115318490674	1073.2386924454654	-425.57211433582387	4344.9175303664215	1069.705750842612	-442.8998476778717	4353.182436924958	1066.0137992230327	-452.81861201447765	4361.487616816948	1061.9491994645703	-460.4524043408325	4330.949840562049	1063.6460308924238	-408.090473620297	4337.637539320391	1063.08707248751	-429.4636887247014	4348.55024596996	1058.3519778831223	-448.6859033213314	4358.625468896125	1053.4755087214999	-460.80331237114507	4367.763362681668	1048.8228165404732	-469.22935841702713	4331.970443294165	1058.9906062339583	-409.5658902894403	4338.695791505645	1054.5749001165732	-429.9427070443371	4348.4187210963355	1049.5487725738544	-446.98455890787443	4358.249327756067	1044.367606311668	-458.82554266287735	4366.894447819	1039.7666633362421	-466.82055082239054	4333.390865918562	1053.1959848642066	-410.83514792735366	4340.260140996757	1045.7196107285172	-430.2464763386083	4348.346727583782	1040.3112714267518	-444.2530886325744	4355.662733034587	1035.8628139235245	-453.0641525150073	4363.404654254561	1031.4019379976978	-460.246687566833
169	1.4	4446.805	859.65103	-201.189	4491.049845211259	843.6699987988935	-238.33153822958832	4409.104490151312	438.8022471830736	-264.1047604723803	4492.466573052441	69.21895637859197	-394.92892302354056	4474.65802348365	-27.25984334634928	-251.3319442274934	4409.871599669603	846.69361520164	-151.2313970668108	4286.247845352968	455.32541053455094	-71.78554113019355	4211.889141523901	79.83999378105288	89.26585573297477	4265.934956430345	26.987969246875085	261.34344419682003	4412.108628235188	987.0398583760632	-254.9663570920738	4365.628682082944	1061.0474256779708	-296.43100639510243	4311.938956080063	1134.1950297631993	-339.7087096271336	4252.85987639593	1197.3720787339203	-381.5895610578998	4188.266353775023	1264.1769103454608	-422.49705469761756	4145.534355027152	1337.2818415156353	-383.963593690565	4122.349929602049	1429.169982600232	-258.2528999405338	4217.614112313447	1243.5512792466586	-422.4769961969638	4254.550104453629	1235.201511233318	-466.8218549305603	4329.780042124329	1078.5012348057228	-422.97631808397443	4369.432915445692	1048.4250655826172	-480.7163800337594	4375.7121341313605	1064.084263568762	-487.6752322657692	4374.071235921399	1074.257491684299	-501.95133010545015	4373.178148077701	1078.9139464159375	-511.34913473177437	4372.647176856566	1080.7185754339573	-518.7182342080806	4378.199415929062	1056.7928876617666	-485.5449532742124	4388.12118602318	1060.677641435329	-494.4512069287078	4389.5970798753615	1063.5075731383029	-505.0205713130449	4386.561585781102	1067.0129204755565	-513.7431642922743	4381.382649323805	1071.0920123519534	-522.4141862613152	4378.27500533615	1050.0594154138137	-483.9629587122101	4387.994834532636	1050.2063087584224	-491.7928985874357	4389.576340892691	1052.3934156755934	-503.0940116659022	4385.900205707268	1056.1901744435875	-513.5060935924222	4380.226738703882	1060.4432738849664	-522.9396080545127	4378.133949213776	1045.1866958462028	-482.5718345623648	4386.894239365619	1041.040534602962	-488.2463393162593	4388.227084037654	1042.0259519854583	-497.8473024748406	4384.656939254742	1045.199196296185	-507.75828296275444	4379.310967062847	1048.9664456132682	-516.5654673208899	4377.221286192226	1039.5871514781034	-481.07419133236033	4384.893783071386	1032.2784939385824	-485.20346750737264	4385.851304454523	1031.649117990433	-492.47848939919106	4383.19412250473	1033.2775366924068	-499.5077809505714	4378.427898485511	1036.2198151692983	-507.1945210148881	4201.729867814936	1242.7138213643573	-394.6814122010173	4179.562375742863	1209.901049537653	-346.34634310375736	4242.766799430686	1101.9764495371976	-426.24284421768203	4329.0457607844055	1061.941862185682	-393.91797939620017	4327.624929367639	1077.8073413648565	-397.40429183858413	4338.218111612509	1078.4355214185196	-412.2163402622251	4346.22172287732	1076.6545723942584	-423.85158963275575	4353.429958744522	1073.2720738782875	-434.6807274391451	4328.707954836786	1072.3656165804161	-401.83332125314246	4334.987698900587	1075.4980371832012	-421.5259880814596	4344.873019651855	1072.042179576608	-438.55877744964806	4353.048405432515	1068.3642521812358	-448.3716987076102	4361.184252124713	1064.2883939658343	-455.97017711344967	4330.4555566660465	1065.9549805175022	-404.8966654390957	4337.524336379443	1065.544339186383	-425.76031706792276	4348.528300329664	1060.9102432757795	-444.69095760068257	4358.495792340518	1056.0587953478685	-456.69519627364633	4367.4485371062665	1051.3977243507425	-465.0896643053679	4331.479332345644	1061.3892807276306	-406.53714387794935	4338.554875477371	1057.1847238490902	-426.5970173790952	4348.357302503972	1052.2636486671386	-443.41648581928655	4358.083970956783	1047.115658564169	-455.1651709816289	4366.554994740324	1042.5111200972372	-463.1384783809152	4332.8764135313495	1055.694841746362	-408.0247675618201	4340.059403464966	1048.4743068554676	-427.27573348353394	4348.208041458695	1043.1757258578123	-441.15519919422985	4355.447456214917	1038.7638679079203	-449.9235765026823	4363.034708236129	1034.306944017949	-457.10106762139424
170	1.408	4446.805	859.65103	-201.189	4490.446298833071	843.4681724429747	-238.35557061703753	4409.027127467069	438.6081104985012	-265.1620269124366	4491.74670030084	69.44240336051583	-396.51679792057246	4475.170563152302	-27.299438052448032	-253.09888897531434	4410.392365812926	846.8800219090057	-151.190849461185	4286.168358170206	455.89295510003285	-70.89287217903467	4211.762069406061	80.23198198162616	90.09815004530773	4265.767975467494	27.483225323487016	262.2248067654668	4412.506977558995	987.1199267169573	-255.03638768312908	4366.082211646321	1061.2072859882855	-296.4323834420373	4312.4233228422145	1134.4503104419248	-339.6054218546205	4253.326055935378	1197.7250512751327	-381.3317355930421	4188.697966697438	1264.6299357455252	-422.0464673710364	4145.93195639362	1337.80134987327	-383.48891189603887	4122.775623737943	1429.8455324949432	-257.8970200447093	4217.819109244319	1243.9080774712913	-422.01771326260393	4253.75460359852	1235.4791249821308	-465.86604523115477	4329.233441941578	1079.7789498853356	-420.3610968603802	4367.38855948411	1050.4989240477057	-475.63888970958845	4373.005166420278	1066.1664597516294	-482.20841741056796	4371.10291687928	1076.5012428419432	-495.91874328351275	4370.09073520813	1081.2927682966092	-504.9207546867427	4369.514299451703	1083.2293022647054	-511.95836702758646	4375.626528679968	1058.949283101811	-480.0463336719235	4385.106617484598	1063.0761367768291	-488.25758353080806	4386.438832513711	1066.1143403404442	-498.28810735162864	4383.386889556443	1069.7338468717314	-506.7007982803991	4378.24349311688	1073.897092448707	-515.1322417560058	4375.896378334555	1052.2706444065834	-478.4810368041027	4385.290434276195	1052.6833241256272	-485.64213975423405	4386.742427919831	1055.104196134262	-496.35965929530323	4383.059533929673	1059.0418026698092	-506.3999617752412	4377.431316990961	1063.388498722226	-515.5723582980739	4375.902500272705	1047.4302795835222	-477.119856830455	4384.494676741369	1043.549791458911	-482.2221433507263	4385.743038299243	1044.7451858217378	-491.3199794596713	4382.181455191979	1048.0575962470816	-500.8752886932666	4376.885177277095	1051.9144162897633	-509.43834960351415	4375.182809834184	1041.86265299271	-475.67362704012066	4382.815445887169	1034.8167248094258	-479.31091756232473	4383.750366925255	1034.364048010403	-486.1941813837809	4381.12122240591	1036.0981150676826	-492.9694281570355	4376.411560670144	1039.1221206417767	-500.44301249636055	4202.418167285332	1243.1809767635325	-394.38997602689943	4181.128805332954	1210.7958312516432	-346.56778147805034	4243.779922866192	1103.0660923660944	-424.83597386285874	4328.352349988297	1064.356985597255	-391.4467628415117	4327.190181126385	1080.0645459317918	-394.10837908234646	4337.745450727123	1080.674911115825	-408.46914472813097	4345.727973212695	1078.9271973874306	-419.8612085049023	4352.923174422087	1075.6114510203433	-430.5484275693744	4328.353023696296	1074.7710921310913	-398.68876185551636	4335.0093550343445	1078.061756174061	-417.736502360914	4344.958903960645	1074.7205810535397	-434.4690548505974	4353.03207631458	1071.0669965568754	-444.1690050179834	4360.9874406093595	1066.9796134410592	-451.72368083223336	4330.092567806162	1068.4793043147267	-401.97496337201153	4337.524355500351	1068.2872913303884	-422.3300732599259	4348.5958738462505	1063.793511263528	-440.96477912847996	4358.438834107241	1058.9787127838888	-452.84792610327344	4367.193507081885	1054.3085725379274	-461.20185849588466	4331.103158615931	1063.9938152450147	-403.78817528671726	4338.498782301195	1060.055653077793	-423.5388096399862	4348.356905974229	1055.272038699775	-440.1335379700023	4357.961762471533	1050.1674528203241	-451.7830510254791	4366.245748661245	1045.5582013253063	-459.726598140224	4332.45744462058	1058.3850060763384	-405.50280179356855	4339.914857663602	1051.4625989339288	-424.605941886325	4348.101718086619	1046.2965825051272	-438.35859255932587	4355.249197437801	1041.9272629513102	-447.0803432629338	4362.668988273187	1037.4724256092952	-454.2462688547604
171	1.417	4446.805	859.65103	-201.189	4489.856208713464	843.2515739236126	-238.36882300368208	4408.847352040855	438.45740638361684	-266.27031041563765	4490.810845883795	69.6741963261015	-398.07957958097	4475.399448853874	-27.331105741059698	-254.89657832960083	4410.892989062021	847.0839729041129	-151.15187222337005	4286.036385066016	456.52175706572706	-69.87858761352291	4211.618044432602	80.6607678958667	91.04137701091133	4265.636012792118	28.008167857666344	263.20603559320716	4412.933728994116	987.1887570144531	-255.1473197799693	4366.5676586597465	1061.354732190052	-296.47905465628634	4312.939249876584	1134.6925316849022	-339.5460997462551	4253.818548718963	1198.0652539967482	-381.10764084242174	4189.154094171593	1265.074650794958	-421.6171547618599	4146.349383566367	1338.3150268087236	-383.0316947249019	4123.240122280436	1430.5048104056848	-257.5501943158975	4218.051457233591	1244.2668238061876	-421.5777967607696	4253.009411971514	1235.8724742644265	-464.86768108318597	4328.88228402079	1081.1607926527868	-417.7838750967795	4365.693300096193	1052.9223769255054	-470.6563056312663	4370.650100951281	1068.6695476484517	-476.79037549178184	4368.518099939274	1079.20394403129	-489.9101369909702	4367.412111449268	1084.151768070069	-498.5065128295926	4366.814098401803	1086.23339060601	-505.21078330398166	4373.415840368033	1061.5170147504516	-474.61849962918006	4382.493900460182	1065.9485663609585	-482.12699288077977	4383.719229137554	1069.223566651824	-491.6152271258935	4380.673010711554	1072.9661526802959	-499.71149503254793	4375.583034652866	1077.2149902466667	-507.8950103297714	4373.88793103722	1054.8759664658157	-473.0904523554496	4382.999203716468	1055.6061668301752	-479.5862725581731	4384.36276862861	1058.2894333304337	-489.71917425761427	4380.700316124265	1062.3774511724068	-499.3811445219413	4375.137132016166	1066.818735099029	-508.2839257296901	4374.045793592072	1050.0543077734324	-471.7739615019567	4382.512156960163	1046.4743908185098	-476.32009424911047	4383.712734013219	1047.902080640327	-484.916704440186	4380.186421931114	1051.3614825202426	-494.1115057333965	4374.958662686459	1055.308141990318	-502.42315684436323	4373.5236900178525	1044.5000250777796	-470.39614970706356	4381.157906065871	1037.7378426232383	-473.56676089889015	4382.100817266055	1037.4754725454093	-480.0640777448974	4379.5197743611425	1039.318833160028	-486.58382617213425	4374.883685571043	1042.4236166719757	-493.8389942555117	4203.128005386483	1243.6261310899317	-394.12910534625007	4182.712747920714	1211.6154241185818	-346.8813949500571	4244.83361745385	1104.085603472529	-423.6080548300678	4327.8346839644855	1066.9609881255642	-389.21229994383964	4326.970535112179	1082.5778242111517	-391.0442109613196	4337.4840180580795	1083.2068876871672	-404.946865306995	4345.434635608338	1081.5139838027503	-416.09307152691383	4352.6008400662195	1078.279679271935	-426.6379269847694	4328.1899383211385	1077.427983382136	-395.78380004229086	4335.207672160786	1080.9452276369345	-414.195035976498	4345.198944725004	1077.7503247504492	-430.6287071157558	4353.157151368259	1074.1297948433923	-440.21170540997895	4360.922314126269	1070.0307261869125	-447.7160297383464	4329.899305232726	1071.241426440134	-399.29801885163903	4337.66732902628	1071.327334857852	-419.15559343081065	4348.778960356485	1067.0063030073693	-437.496491735363	4358.480619694173	1062.237686083397	-449.254054685738	4367.025913239756	1057.5578252764103	-457.5604372062468	4330.88153613826	1066.8249344127642	-401.2874555527438	4338.560264984669	1063.1970111562705	-420.7419243605672	4348.447260820332	1058.5769475616985	-437.11441076079404	4357.912586838663	1053.5238032287905	-448.6607608555645	4365.998171705111	1048.9086781781482	-456.5681143255766	4332.175463986985	1061.2856649625994	-403.2323842358064	4339.862772734515	1054.692207186281	-422.2019310805498	4348.0620016973335	1049.6760560409366	-435.8307145553196	4355.102505863784	1045.3534001725573	-444.503386231356	4362.343551475114	1040.898621639192	-451.6523111477436
